<svg xmlns="http://www.w3.org/2000/svg" viewBox="0 0 64 64">
  <rect width="64" height="64" rx="12" fill="#0F172A"/>
  <g transform="translate(4 8) scale(0.48)">
    <path
      fill="none"
      stroke="#F97316"
      stroke-width="7"
      stroke-linecap="round"
      stroke-linejoin="round"
      d="M34 72c-10.5 0-19-7.8-19-18.2 0-8.2 5.4-15.2 13-17.6C30.8 25.2 41.2 17 54.5 17c11.8 0 21.8 6.4 26.2 15.8 2.2-.7 4.5-1.1 7-1.1 12.4 0 22.5 9.4 22.5 21.8S100.1 75 87.7 75H34z"
    />
    <g fill="none" stroke="#F97316" stroke-width="3.2" stroke-linejoin="round">
      <path d="M48 34h16l6 6v14H48z"/>
      <path d="M54 40h16l6 6v14H54z"/>
      <path d="M60 46h16l6 6v14H60z"/>
    </g>
  </g>
</svg>
